<svg xmlns="http://www.w3.org/2000/svg" viewBox="0 0 512 512" role="img" aria-label="Visual timer icon">
  <rect width="512" height="512" rx="112" fill="#07090c"/>
  <path d="M256 61c78 0 147 47 177 116l-58 28c-20-48-67-81-119-81-72 0-131 59-131 132s59 132 131 132c55 0 104-35 123-87l60 23c-28 76-100 128-183 128-108 0-196-88-196-196S148 61 256 61Z" fill="#f9f1d8"/>
  <path d="M256 145c33 0 61 12 84 35l-45 45c-11-11-24-16-39-16-31 0-56 25-56 56 0 16 6 29 17 40l-45 45c-24-23-36-52-36-85 0-66 54-120 120-120Z" fill="#ff6b4a"/>
  <circle cx="256" cy="265" r="39" fill="#f0b53f"/>
</svg>
